<?xml version="1.0" encoding="UTF-8" standalone="no"?>
<!-- Created with Inkscape (http://www.inkscape.org/) -->

<svg
   width="128"
   height="128"
   viewBox="0 0 33.866663 33.866663"
   version="1.1"
   id="svg6451"
   xmlns="http://www.w3.org/2000/svg"
   xmlns:svg="http://www.w3.org/2000/svg">
  <defs
     id="defs6448" />
  <g
     id="layer1">
    <path
       style="fill:#e51313;fill-opacity:1;stroke-width:0.100042"
       d="M 19.951223,16.93357 32.777727,4.1066355 c 0.834724,-0.8342815 0.834724,-2.1833105 0,-3.0175919 -0.834314,-0.8343906 -2.183376,-0.8343906 -3.017691,0 L 16.933128,13.915924 4.1066254,1.0890436 c -0.8347181,-0.8343906 -2.1833759,-0.8343906 -3.0176901,0 -0.83472352,0.8342814 -0.83472352,2.1833104 0,3.0175919 L 13.915438,16.93357 1.0889353,29.760451 c -0.83472352,0.834391 -0.83472352,2.183364 0,3.0177 0.4158036,0.416405 0.9624935,0.625261 1.5088669,0.625261 0.5463297,0 1.0926211,-0.209021 1.5088232,-0.625261 L 16.933128,19.951217 29.760036,32.778151 c 0.416186,0.416405 0.962494,0.625261 1.508824,0.625261 0.546292,0 1.092665,-0.209021 1.508867,-0.625261 0.834724,-0.834336 0.834724,-2.183309 0,-3.0177 z m 0,0"
       id="path16169-4-4" />
  </g>
</svg>
